<svg version="1.2" xmlns="http://www.w3.org/2000/svg" viewBox="0 0 933 1587" width="933" height="1587">
	<title>logo-basic-fit@2x-svg</title>
	<style>
		.s0 { fill: #ff6400 } 
	</style>
	<g id="#ffffffff">
		<path id="Layer" fill-rule="evenodd" class="s0" d="m339 233.6c0.3-77.7-4.1-155.5-0.5-233.1 9.2 77.5 25.3 154 37.6 231.1 54.3-52.1 108.3-104.5 162.8-156.6-44.6 61.1-89.8 121.8-134.6 182.7 108.3-4.4 216.6-9.3 324.9-13.7-36.3 6.7-72.7 12.8-108.9 19.3 104 415.1 208.1 830.3 312.4 1245.4q-180.9 15.8-361.8 31.6c-13-75.3-25.9-150.6-38.9-225.9-42.1 3.6-84.1 7.2-126.1 11-0.4 76.5-1.1 152.9-1.2 229.4-122 10.6-244 21.3-366 32 23.1-426.8 46.2-853.7 69.3-1280.4-35.9-0.6-71.9-0.6-107.8-1 104.4-14.6 208.9-28.5 313.4-43-52.4-50.3-105.2-100.2-157.4-150.7 61.1 40.4 121.9 81.2 182.8 121.9zm48.1 91.9c-9.4 8.4-21.6 12.5-31.1 20.7-3.4 18.7 17.1 32.4 10.6 51.1-5 21-9.2 42.5-8.4 64.3 0.2 17.7 7.3 34.2 10.5 51.4 7.2 37.1 7.1 75.3 0.9 112.5-3.8 24.6 9 50-0.5 73.9-7.4 19.2-15.9 37.9-22.7 57.3-7.5 20.6-20.9 38.4-30 58.2-10.4 21.8-8.3 47.5-20.4 68.6-6.5 11.7-13.9 22.9-19.2 35.2 1.4 8.1 5 16.8 0.1 24.5-13.8 26.7-19.5 56.7-22.9 86.4-4.8 56.7-8.3 113.6-8.4 170.6-4.4 34.3-22.6 65.2-26.8 99.6-3.3 43.4-3.4 87.4-11.4 130.3-9.4 17.8-12.1 39.7-28.3 53.3-10.1 7.3-11.1 20.3-6.6 31.2 14.8 10.4 33.9 9.7 51.2 10.4 11.2-12.2 22-25 33.7-36.7 9.5-9.4 23.5-11.2 34.5-18.1 9.4-15.3 2.1-33.6 2.8-50.1 1.7-37.2-3.6-77.3 15.2-111.2 12.7-21.2 2.3-46.8 9.7-69.4 16.6-54.7 39.8-107.2 66.8-157.5 39.5 9.7 54.3 51.7 74.9 81.9 11.2 20.2 35.9 27.6 47.1 47.8 11.3 19.2 15.4 41.7 27.3 60.6 19.5 31.3 43 60 61.6 91.8 8.4 13.8 7 30.8 13.5 45.2 6.9 8.2 16 14 24.3 20.8 1.6 7.8 2.4 15.9 5.3 23.4 10 6 22.5 3.6 33.5 5.9 28.3 5.1 55 19.6 84.4 17.7 13.3-1.5 27.3-15.8 19.5-29.4-13.5-25.6-45-32.2-62.2-54.2-19.2-24.2-28.7-54.3-46.8-79.3-12.8-17.7-16.8-39.8-26.9-58.9-14.3-26.2-43.3-40.9-56.6-67.8-18-34.8-22.7-74.5-38.3-110.3-8.9-21.1-24.8-38.1-36-57.8-9.2-14.5-3.1-34.8-16.7-46.9-14.8-13.2-7-33.6-0.5-48.9 9-20 4.1-43.7 14.9-62.9 12.9-12 26.8-24.1 31.6-41.9 12.6-23.7-3.9-47.4-13.7-68.6-8.6-17.4-9.8-41.9 6.4-55.3 30-27.9 45.5-71.5 34.8-111.4-17.1-36.1-71.9-36.7-95.8-7.5-3.6 13.5-3 27.8-7.3 41.2-6.2 19.1 2.1 38.5 5.9 57.1-4.1-1.2-12.3-3.6-16.5-4.7-5.9-12.8-12-25.6-18-38.3-3.2-14.2-1.2-29.1-4.2-43.3-4.9-21.5-13.1-42.1-17.4-63.7-3.8-21 4.1-42.4-0.9-63.3-6.2-26.6-13.7-53.4-12.4-80.9 12.2-4.8 19.2-16.3 8.8-27.1 0-9 0-18.1-0.4-27.2-7.5 0.8-15.1 1-22.5-0.3z"/>
	</g>
</svg>